<?xml version="1.0" encoding="utf-8"?>
<!-- Generator: Adobe Illustrator 12.0.0, SVG Export Plug-In . SVG Version: 6.00 Build 51448)  -->
<!DOCTYPE svg PUBLIC "-//W3C//DTD SVG 1.1//EN" "http://www.w3.org/Graphics/SVG/1.1/DTD/svg11.dtd" [
	<!ENTITY ns_svg "http://www.w3.org/2000/svg">
	<!ENTITY ns_xlink "http://www.w3.org/1999/xlink">
]>
<svg  version="1.1" id="Layer_1" xmlns="&ns_svg;" xmlns:xlink="&ns_xlink;" width="394.346" height="368.323"
	 viewBox="0 0 394.346 368.323" overflow="visible" enable-background="new 0 0 394.346 368.323" xml:space="preserve">
<path d="M304.97,9.797c-2.229,5.411-4.608,10.382-5.351,11.113c-0.594,0.877-1.188,2.632-1.188,4.094s-0.597,2.631-1.487,2.631
	c-0.742,0-1.485,1.024-1.485,2.34s-2.377,7.312-5.201,13.306c-5.798,12.137-5.944,12.868-3.271,14.184
	c0.893,0.439,3.865,2.194,6.242,3.802c12.633,8.042,12.187,8.042,15.606,0.878c1.633-3.656,2.971-7.02,2.971-7.458
	c0-0.438,2.229-5.555,5.055-11.405c8.172-17.108,12.928-29.245,11.739-30.415c-0.743-0.584-5.35-3.801-10.403-7.018L309.132,0
	L304.97,9.797z"/>
<path d="M238.091,15.646c-0.742,0.585-5.352,5.996-10.257,11.99c-4.755,5.996-9.063,11.26-9.51,11.698
	c-0.595,0.439-3.566,3.948-6.836,8.043c-3.122,3.948-6.243,7.604-6.689,8.042c-0.445,0.438-4.458,5.265-9.065,10.967
	c-4.607,5.556-10.106,12.137-12.337,14.33c-2.079,2.194-7.578,8.773-12.335,14.623c-4.606,5.849-8.917,10.821-9.362,11.26
	c-0.445,0.438-3.567,3.948-6.688,8.042c-3.27,3.949-6.243,7.604-6.688,8.043c-0.445,0.438-3.567,3.948-6.688,8.042
	c-3.271,3.948-9.513,11.551-13.971,16.815c-10.254,12.283-11.592,13.891-18.726,22.665c-3.27,3.949-6.242,7.605-6.836,8.042
	c-0.447,0.438-4.756,5.704-9.512,11.698c-4.904,5.995-9.216,11.26-9.661,11.698c-0.446,0.438-3.568,3.947-6.688,8.043
	c-3.27,3.947-6.243,7.604-6.836,8.041c-0.447,0.438-4.755,5.704-9.512,11.698c-21.105,26.321-28.683,31.731-47.707,34.218L0,265.25
	l2.973,6.581c1.634,3.655,3.863,8.481,4.904,10.967c1.041,2.34,4.013,8.919,6.54,14.33c2.525,5.412,4.606,10.235,4.606,10.529
	c0,0.292,1.635,4.094,3.419,8.334c1.931,4.239,4.458,10.09,5.499,12.868c1.189,2.778,3.271,7.312,4.756,9.943
	s2.675,5.703,2.675,6.873c0,4.823,2.973,1.899,8.917-8.481c6.39-11.553,19.619-20.326,36.412-24.42
	c4.161-1.023,8.471-2.047,9.66-2.486c1.634-0.439,4.162,2.047,7.58,7.165c6.688,10.09,8.621,13.161,9.81,15.793
	c0.593,1.169,2.972,4.094,5.201,6.58c2.23,2.338,4.162,5.264,4.162,6.142c0,1.024,0.596,1.899,1.189,1.899
	c0.595,0,2.379,2.195,3.864,4.681c1.635,2.632,5.351,7.312,8.471,10.235c6.391,6.287,10.403,6.873,22.739,3.509
	c10.85-3.07,30.468-7.895,36.561-9.064c8.917-1.61,16.051-6.581,19.32-13.308c1.635-3.508,2.973-7.458,2.973-8.92
	s0.596-3.216,1.339-4.094c0.742-0.73,3.863-10.821,6.835-22.52c2.973-11.697,5.945-23.396,6.836-25.881
	c1.637-5.264,1.19-4.972,25.86-10.675c7.431-1.755,18.43-4.387,24.522-5.849c6.094-1.608,16.495-4.094,23.036-5.704
	c6.54-1.607,17.391-4.239,23.927-5.849c6.69-1.753,13.525-3.07,15.309-3.07c1.636,0,3.121-0.585,3.121-1.316
	c0-1.315-2.675-8.042-7.43-18.423c-2.824-6.436-8.322-18.718-10.257-23.396c-0.743-1.608-2.972-6.58-5.052-10.967
	c-2.081-4.388-6.39-14.33-9.66-21.934c-3.271-7.604-7.282-17.254-9.214-21.203c-1.784-4.094-4.161-9.358-5.202-11.698
	c-1.041-2.486-4.014-8.92-6.54-14.33c-2.524-5.411-4.607-10.236-4.607-10.528c0-0.293-1.633-4.241-3.715-8.627
	c-2.081-4.386-3.716-8.482-3.716-8.92c0-0.438-2.08-5.264-4.606-10.673c-2.526-5.411-5.201-11.113-5.796-12.722
	c-0.743-1.608-2.975-6.727-5.055-11.405c-2.08-4.679-3.863-8.773-3.863-9.066c0-0.438-1.932-4.825-4.458-9.797
	c-2.377-4.971-4.461-9.504-4.461-10.235c0-0.585-1.634-4.532-3.714-8.773c-2.08-4.095-3.715-8.334-3.715-9.358
	C241.956,15.646,240.024,14.33,238.091,15.646z M197.814,294.058c-1.189,4.97-2.675,10.088-3.27,11.26
	c-0.593,1.315-2.08,6.14-3.12,10.82c-3.12,13.452-5.499,15.061-31.657,21.202c-3.865,1.023-8.62,1.754-10.701,1.754
	c-4.013,0-6.093-2.632-17.536-23.54l-6.986-12.577l10.701-2.925c13.078-3.509,28.535-7.456,40.573-10.088
	c4.904-1.023,10.998-2.485,13.375-3.364c2.528-0.732,5.945-1.462,7.581-1.462C199.895,284.992,199.895,285.138,197.814,294.058z"/>
<path d="M361.594,72.088C342.87,84.518,326.074,94.9,325.182,94.9c-0.596,0-1.932,0.877-2.824,1.901
	c-1.188,1.462-0.891,3.509,1.19,7.896c1.634,3.07,3.416,7.311,3.862,9.358c0.446,1.9,1.932,4.825,3.122,6.287
	c2.08,2.778,2.08,2.778,6.538-0.292c2.378-1.755,4.906-3.217,5.648-3.217c0.744,0,2.379-1.024,3.419-2.34
	c1.039-1.316,3.271-2.924,5.054-3.656c5.053-2.339,9.512-5.118,12.334-7.603c1.486-1.462,3.419-2.486,4.311-2.486
	c0.743,0,2.973-1.608,4.756-3.509l3.419-3.509L372,84.518c-2.232-5.118-4.312-10.527-4.758-11.99
	C366.351,69.604,365.609,69.604,361.594,72.088z"/>
<path d="M342.422,167.427c-0.445,6.581-1.336,13.015-1.782,14.332c-0.745,1.9,0.295,2.339,5.498,2.339
	c3.566,0,14.268,1.315,23.629,2.924c25.415,4.388,23.335,5.263,24.078-10.674c0.445-7.312,0.595-13.599,0.445-13.891
	c-0.742-0.878-26.454-4.826-38.046-5.849l-12.781-1.024L342.422,167.427z"/>
</svg>
