<?xml version="1.0" standalone="no"?>
<!DOCTYPE svg PUBLIC "-//W3C//DTD SVG 20010904//EN"
 "http://www.w3.org/TR/2001/REC-SVG-20010904/DTD/svg10.dtd">
<svg version="1.0" xmlns="http://www.w3.org/2000/svg"
 width="1428.000000pt" height="364.000000pt" viewBox="0 0 1428.000000 364.000000"
 preserveAspectRatio="xMidYMid meet">
<metadata>
Created by potrace 1.11, written by Peter Selinger 2001-2013
</metadata>
<g transform="translate(0.000000,364.000000) scale(0.100000,-0.100000)"
fill="#000000" stroke="none">
<path d="M9874 3092 c-15 -37 -31 -71 -36 -76 -4 -6 -8 -18 -8 -28 0 -10 -4
-18 -10 -18 -5 0 -10 -7 -10 -16 0 -9 -16 -50 -35 -91 -39 -83 -40 -88 -22
-97 6 -3 26 -15 42 -26 85 -55 82 -55 105 -6 11 25 20 48 20 51 0 3 15 38 34
78 55 117 87 200 79 208 -5 4 -36 26 -70 48 l-61 40 -28 -67z"/>
<path d="M9424 3052 c-5 -4 -36 -41 -69 -82 -32 -41 -61 -77 -64 -80 -4 -3
-24 -27 -46 -55 -21 -27 -42 -52 -45 -55 -3 -3 -30 -36 -61 -75 -31 -38 -68
-83 -83 -98 -14 -15 -51 -60 -83 -100 -31 -40 -60 -74 -63 -77 -3 -3 -24 -27
-45 -55 -22 -27 -42 -52 -45 -55 -3 -3 -24 -27 -45 -55 -22 -27 -64 -79 -94
-115 -69 -84 -78 -95 -126 -155 -22 -27 -42 -52 -46 -55 -3 -3 -32 -39 -64
-80 -33 -41 -62 -77 -65 -80 -3 -3 -24 -27 -45 -55 -22 -27 -42 -52 -46 -55
-3 -3 -32 -39 -64 -80 -142 -180 -193 -217 -321 -234 l-82 -11 20 -45 c11 -25
26 -58 33 -75 7 -16 27 -61 44 -98 17 -37 31 -70 31 -72 0 -2 11 -28 23 -57
13 -29 30 -69 37 -88 8 -19 22 -50 32 -68 10 -18 18 -39 18 -47 0 -33 20 -13
60 58 43 79 132 139 245 167 28 7 57 14 65 17 11 3 28 -14 51 -49 45 -69 58
-90 66 -108 4 -8 20 -28 35 -45 15 -16 28 -36 28 -42 0 -7 4 -13 8 -13 4 0 16
-15 26 -32 11 -18 36 -50 57 -70 43 -43 70 -47 153 -24 73 21 205 54 246 62
60 11 108 45 130 91 11 24 20 51 20 61 0 10 4 22 9 28 5 5 26 74 46 154 20 80
40 160 46 177 11 36 8 34 174 73 50 12 124 30 165 40 41 11 111 28 155 39 44
11 117 29 161 40 45 12 91 21 103 21 11 0 21 4 21 9 0 9 -18 55 -50 126 -19
44 -56 128 -69 160 -5 11 -20 45 -34 75 -14 30 -43 98 -65 150 -22 52 -49 118
-62 145 -12 28 -28 64 -35 80 -7 17 -27 61 -44 98 -17 37 -31 70 -31 72 0 2
-11 29 -25 59 -14 30 -25 58 -25 61 0 3 -14 36 -31 73 -17 37 -35 76 -39 87
-5 11 -20 46 -34 78 -14 32 -26 60 -26 62 0 3 -13 33 -30 67 -16 34 -30 65
-30 70 0 4 -11 31 -25 60 -14 28 -25 57 -25 64 0 16 -13 25 -26 16z m-271
-1904 c-8 -34 -18 -69 -22 -77 -4 -9 -14 -42 -21 -74 -21 -92 -37 -103 -213
-145 -26 -7 -58 -12 -72 -12 -27 0 -41 18 -118 161 l-47 86 72 20 c88 24 192
51 273 69 33 7 74 17 90 23 17 5 40 10 51 10 21 1 21 0 7 -61z"/>
<path d="M3620 1880 l0 -990 55 0 55 0 0 990 0 990 -55 0 -55 0 0 -990z"/>
<path d="M4170 1880 l0 -990 55 0 55 0 0 990 0 990 -55 0 -55 0 0 -990z"/>
<path d="M760 1825 l0 -935 288 0 c321 0 382 8 492 62 91 44 180 136 225 230
66 138 70 315 10 445 -53 116 -178 210 -312 235 l-62 11 71 35 c137 66 226
189 250 345 37 244 -99 441 -340 493 -48 10 -144 14 -344 14 l-278 0 0 -935z
m584 800 c114 -24 185 -77 228 -170 19 -42 23 -67 23 -150 -1 -86 -4 -108 -27
-156 -34 -75 -85 -129 -156 -167 -92 -49 -164 -62 -354 -62 l-168 0 0 360 0
360 193 0 c129 0 214 -5 261 -15z m-4 -839 c123 -23 188 -52 251 -115 63 -64
87 -118 96 -223 11 -131 -29 -251 -110 -325 -102 -94 -181 -113 -474 -113
l-213 0 0 395 0 395 188 0 c113 -1 217 -6 262 -14z"/>
<path d="M4740 1825 l0 -935 65 0 65 0 0 445 0 445 535 0 535 0 2 -442 3 -443
63 -3 62 -3 0 936 0 936 -62 -3 -63 -3 -3 -427 -2 -428 -535 0 -535 0 0 430 0
430 -65 0 -65 0 0 -935z"/>
<path d="M10255 2666 c-126 -85 -239 -156 -245 -156 -4 0 -13 -6 -19 -13 -8
-10 -6 -24 8 -54 11 -21 23 -50 26 -64 3 -13 13 -33 21 -43 14 -19 14 -19 44
2 16 12 33 22 38 22 5 0 16 7 23 16 7 9 22 20 34 25 34 16 64 35 83 52 10 10
23 17 29 17 5 0 20 11 32 24 l23 24 -27 63 c-15 35 -29 72 -32 82 -6 20 -11
20 -38 3z"/>
<path d="M11241 2319 c-115 -22 -244 -114 -313 -223 l-33 -51 -3 128 -3 127
-54 0 -55 0 0 -670 0 -670 55 0 55 0 0 413 c0 453 5 497 58 604 74 145 200
231 354 240 181 12 288 -56 350 -222 22 -58 23 -73 28 -545 l5 -485 58 -3 58
-3 -3 488 c-4 529 -5 534 -63 658 -82 173 -276 257 -494 214z"/>
<path d="M12831 2289 c-115 -22 -244 -114 -313 -223 l-33 -51 -3 128 -3 127
-54 0 -55 0 0 -670 0 -670 55 0 55 0 0 413 c0 453 5 497 58 604 74 145 200
231 354 240 181 12 288 -56 350 -222 22 -58 23 -73 28 -545 l5 -485 58 -3 58
-3 -3 488 c-4 529 -5 534 -63 658 -82 173 -276 257 -494 214z"/>
<path d="M6965 2253 c-102 -14 -236 -74 -317 -143 -223 -192 -286 -637 -131
-933 54 -103 158 -206 254 -252 179 -85 403 -86 579 -3 90 43 205 158 254 255
65 130 80 206 80 388 -1 180 -17 262 -76 383 -45 93 -160 208 -250 251 -106
50 -261 72 -393 54z m236 -117 c89 -19 141 -47 210 -113 62 -59 107 -139 135
-243 25 -91 26 -338 1 -430 -67 -249 -235 -380 -486 -380 -244 1 -422 143
-488 390 -24 88 -24 299 0 390 37 139 119 263 217 325 37 23 138 62 180 68 58
9 169 6 231 -7z"/>
<path d="M2162 1758 c4 -446 5 -477 25 -550 54 -193 149 -294 314 -333 216
-51 415 28 526 208 l38 61 3 -127 3 -127 54 0 55 0 0 670 0 670 -54 0 -55 0
-3 -447 c-4 -481 -5 -489 -60 -598 -34 -66 -122 -149 -191 -181 -56 -26 -72
-29 -172 -29 -94 0 -118 4 -162 24 -61 27 -126 94 -154 157 -44 99 -49 154
-49 627 l0 447 -61 0 -60 0 3 -472z"/>
<path d="M10126 2014 c-3 -45 -9 -89 -12 -98 -5 -13 2 -16 37 -16 24 0 96 -9
159 -20 171 -30 157 -36 162 73 3 50 4 93 3 95 -5 6 -178 33 -256 40 l-86 7
-7 -81z"/>
</g>
</svg>
